<svg width="187" height="52" viewBox="0 0 187 52" fill="none" xmlns="http://www.w3.org/2000/svg">
<path d="M25.5998 34H19.8327L28.62 8.54545H35.5554L44.3303 34H38.5632L32.1871 14.3622H31.9883L25.5998 34ZM25.2393 23.9947H38.8615V28.1957H25.2393V23.9947ZM56.4174 34H47.394V8.54545H56.492C59.0524 8.54545 61.2565 9.05504 63.1042 10.0742C64.952 11.0851 66.373 12.5393 67.3674 14.4368C68.37 16.3343 68.8713 18.6046 68.8713 21.2479C68.8713 23.8994 68.37 26.178 67.3674 28.0838C66.373 29.9896 64.9437 31.4521 63.0794 32.4712C61.2233 33.4904 59.0027 34 56.4174 34ZM52.7757 29.3888H56.1937C57.7846 29.3888 59.1228 29.1071 60.2083 28.5437C61.302 27.9719 62.1223 27.0895 62.6692 25.8963C63.2244 24.6948 63.502 23.1454 63.502 21.2479C63.502 19.367 63.2244 17.8299 62.6692 16.6367C62.1223 15.4435 61.3062 14.5652 60.2207 14.0018C59.1352 13.4383 57.7971 13.1566 56.2061 13.1566H52.7757V29.3888ZM75.8097 34H70.0427L78.83 8.54545H85.7654L94.5402 34H88.7732L82.3971 14.3622H82.1982L75.8097 34ZM75.4493 23.9947H89.0715V28.1957H75.4493V23.9947ZM97.604 34V8.54545H107.647C109.577 8.54545 111.222 8.91418 112.581 9.65163C113.94 10.3808 114.976 11.3958 115.688 12.6967C116.409 13.9893 116.769 15.4808 116.769 17.1712C116.769 18.8615 116.405 20.353 115.676 21.6456C114.947 22.9382 113.89 23.945 112.506 24.6658C111.131 25.3867 109.465 25.7472 107.51 25.7472H101.109V21.4343H106.64C107.676 21.4343 108.529 21.2562 109.2 20.8999C109.88 20.5353 110.385 20.034 110.717 19.396C111.056 18.7496 111.226 18.008 111.226 17.1712C111.226 16.326 111.056 15.5885 110.717 14.9588C110.385 14.3208 109.88 13.8278 109.2 13.4798C108.521 13.1235 107.659 12.9453 106.615 12.9453H102.986V34H97.604ZM119.296 12.9826V8.54545H140.201V12.9826H132.408V34H127.089V12.9826H119.296ZM144.921 34H139.154L147.941 8.54545H154.877L163.652 34H157.884L151.508 14.3622H151.31L144.921 34ZM144.561 23.9947H158.183V28.1957H144.561V23.9947Z" fill="#054061"/>
<path d="M6.57102 40.2727H7.89205V46.0128C7.89205 46.6236 7.74858 47.1648 7.46165 47.6364C7.17472 48.1051 6.77131 48.4744 6.25142 48.7443C5.73153 49.0114 5.12216 49.1449 4.4233 49.1449C3.72727 49.1449 3.11932 49.0114 2.59943 48.7443C2.07955 48.4744 1.67614 48.1051 1.3892 47.6364C1.10227 47.1648 0.958807 46.6236 0.958807 46.0128V40.2727H2.27557V45.9062C2.27557 46.3011 2.36222 46.652 2.53551 46.9588C2.71165 47.2656 2.96023 47.5071 3.28125 47.6832C3.60227 47.8565 3.98295 47.9432 4.4233 47.9432C4.86648 47.9432 5.24858 47.8565 5.5696 47.6832C5.89347 47.5071 6.14063 47.2656 6.31108 46.9588C6.48438 46.652 6.57102 46.3011 6.57102 45.9062V40.2727ZM10.9783 45.1136V49H9.70419V42.4545H10.9272V43.5199H11.0082C11.1587 43.1733 11.3945 42.8949 11.7156 42.6847C12.0394 42.4744 12.4471 42.3693 12.9386 42.3693C13.3846 42.3693 13.7752 42.4631 14.1104 42.6506C14.4457 42.8352 14.7056 43.1108 14.8903 43.4773C15.0749 43.8437 15.1673 44.2969 15.1673 44.8366V49H13.8931V44.9901C13.8931 44.5156 13.7695 44.1449 13.5224 43.8778C13.2752 43.608 12.9357 43.473 12.5039 43.473C12.2085 43.473 11.9457 43.5369 11.7156 43.6648C11.4883 43.7926 11.3079 43.9801 11.1744 44.2273C11.0437 44.4716 10.9783 44.767 10.9783 45.1136ZM18.1502 40.2727V49H16.8761V40.2727H18.1502ZM22.6214 49.1321C22.0078 49.1321 21.4723 48.9915 21.0149 48.7102C20.5575 48.429 20.2024 48.0355 19.9496 47.5298C19.6967 47.0241 19.5703 46.4332 19.5703 45.7571C19.5703 45.0781 19.6967 44.4844 19.9496 43.9759C20.2024 43.4673 20.5575 43.0724 21.0149 42.7912C21.4723 42.5099 22.0078 42.3693 22.6214 42.3693C23.2351 42.3693 23.7706 42.5099 24.228 42.7912C24.6854 43.0724 25.0405 43.4673 25.2933 43.9759C25.5462 44.4844 25.6726 45.0781 25.6726 45.7571C25.6726 46.4332 25.5462 47.0241 25.2933 47.5298C25.0405 48.0355 24.6854 48.429 24.228 48.7102C23.7706 48.9915 23.2351 49.1321 22.6214 49.1321ZM22.6257 48.0625C23.0234 48.0625 23.353 47.9574 23.6143 47.7472C23.8757 47.5369 24.0689 47.2571 24.1939 46.9077C24.3217 46.5582 24.3857 46.1733 24.3857 45.7528C24.3857 45.3352 24.3217 44.9517 24.1939 44.6023C24.0689 44.25 23.8757 43.9673 23.6143 43.7543C23.353 43.5412 23.0234 43.4347 22.6257 43.4347C22.2251 43.4347 21.8928 43.5412 21.6286 43.7543C21.3672 43.9673 21.1726 44.25 21.0447 44.6023C20.9197 44.9517 20.8572 45.3352 20.8572 45.7528C20.8572 46.1733 20.9197 46.5582 21.0447 46.9077C21.1726 47.2571 21.3672 47.5369 21.6286 47.7472C21.8928 47.9574 22.2251 48.0625 22.6257 48.0625ZM29.8519 49.1321C29.2184 49.1321 28.6729 48.9886 28.2156 48.7017C27.761 48.4119 27.4116 48.0128 27.1673 47.5043C26.9229 46.9957 26.8008 46.4134 26.8008 45.7571C26.8008 45.0923 26.9258 44.5057 27.1758 43.9972C27.4258 43.4858 27.7781 43.0866 28.2326 42.7997C28.6871 42.5128 29.2227 42.3693 29.8391 42.3693C30.3363 42.3693 30.7795 42.4616 31.1687 42.6463C31.5579 42.8281 31.8718 43.0838 32.1104 43.4134C32.3519 43.7429 32.4954 44.1278 32.5408 44.5682H31.3008C31.2326 44.2614 31.0763 43.9972 30.832 43.7756C30.5906 43.554 30.2667 43.4432 29.8604 43.4432C29.5053 43.4432 29.1942 43.5369 28.9272 43.7244C28.663 43.9091 28.457 44.1733 28.3093 44.517C28.1616 44.858 28.0877 45.2614 28.0877 45.7273C28.0877 46.2045 28.1602 46.6165 28.305 46.9631C28.4499 47.3097 28.6545 47.5781 28.9187 47.7685C29.1857 47.9588 29.4996 48.054 29.8604 48.054C30.1019 48.054 30.3207 48.0099 30.5167 47.9219C30.7156 47.831 30.8817 47.7017 31.0153 47.5341C31.1516 47.3665 31.2468 47.1648 31.3008 46.929H32.5408C32.4954 47.3523 32.3576 47.7301 32.1275 48.0625C31.8974 48.3949 31.5891 48.6562 31.2028 48.8466C30.8192 49.0369 30.369 49.1321 29.8519 49.1321ZM35.0753 46.7798L35.0668 45.2244H35.2884L37.8963 42.4545H39.4219L36.4474 45.608H36.2472L35.0753 46.7798ZM33.9034 49V40.2727H35.1776V49H33.9034ZM38.0369 49L35.6932 45.8892L36.571 44.9986L39.6009 49H38.0369ZM40.5831 49V42.4545H41.8572V49H40.5831ZM41.2266 41.4446C41.005 41.4446 40.8146 41.3707 40.6555 41.223C40.4993 41.0724 40.4212 40.8935 40.4212 40.6861C40.4212 40.4759 40.4993 40.2969 40.6555 40.1491C40.8146 39.9986 41.005 39.9233 41.2266 39.9233C41.4482 39.9233 41.6371 39.9986 41.7933 40.1491C41.9524 40.2969 42.032 40.4759 42.032 40.6861C42.032 40.8935 41.9524 41.0724 41.7933 41.223C41.6371 41.3707 41.4482 41.4446 41.2266 41.4446ZM44.8455 45.1136V49H43.5714V42.4545H44.7944V43.5199H44.8754C45.0259 43.1733 45.2617 42.8949 45.5827 42.6847C45.9066 42.4744 46.3143 42.3693 46.8058 42.3693C47.2518 42.3693 47.6424 42.4631 47.9776 42.6506C48.3129 42.8352 48.5728 43.1108 48.7575 43.4773C48.9421 43.8437 49.0344 44.2969 49.0344 44.8366V49H47.7603V44.9901C47.7603 44.5156 47.6367 44.1449 47.3896 43.8778C47.1424 43.608 46.8029 43.473 46.3711 43.473C46.0756 43.473 45.8129 43.5369 45.5827 43.6648C45.3555 43.7926 45.1751 43.9801 45.0415 44.2273C44.9109 44.4716 44.8455 44.767 44.8455 45.1136ZM53.4876 51.5909C52.9677 51.5909 52.5202 51.5227 52.1452 51.3864C51.7731 51.25 51.4691 51.0696 51.2333 50.8452C50.9975 50.6207 50.8214 50.375 50.7049 50.108L51.8001 49.6562C51.8768 49.7812 51.979 49.9134 52.1069 50.0526C52.2376 50.1946 52.4137 50.3153 52.6353 50.4148C52.8597 50.5142 53.1481 50.5639 53.5004 50.5639C53.9833 50.5639 54.3825 50.446 54.6978 50.2102C55.0131 49.9773 55.1708 49.6051 55.1708 49.0938V47.8068H55.0898C55.0131 47.946 54.9023 48.1009 54.7575 48.2713C54.6154 48.4418 54.4194 48.5895 54.1694 48.7145C53.9194 48.8395 53.5941 48.902 53.1935 48.902C52.6765 48.902 52.2106 48.7812 51.7958 48.5398C51.3839 48.2955 51.0572 47.9361 50.8157 47.4616C50.5771 46.9844 50.4577 46.3977 50.4577 45.7017C50.4577 45.0057 50.5756 44.4091 50.8114 43.9119C51.0501 43.4148 51.3768 43.0341 51.7915 42.7699C52.2063 42.5028 52.6765 42.3693 53.2021 42.3693C53.6083 42.3693 53.9364 42.4375 54.1864 42.5739C54.4364 42.7074 54.631 42.8636 54.7702 43.0426C54.9123 43.2216 55.0217 43.3793 55.0984 43.5156H55.1921V42.4545H56.4407V49.1449C56.4407 49.7074 56.31 50.169 56.0487 50.5298C55.7873 50.8906 55.4336 51.1577 54.9876 51.331C54.5444 51.5043 54.0444 51.5909 53.4876 51.5909ZM53.4748 47.8452C53.8413 47.8452 54.1509 47.7599 54.4038 47.5895C54.6594 47.4162 54.8526 47.169 54.9833 46.848C55.1168 46.5241 55.1836 46.1364 55.1836 45.6847C55.1836 45.2443 55.1183 44.8565 54.9876 44.5213C54.8569 44.1861 54.6651 43.9247 54.4123 43.7372C54.1594 43.5469 53.8469 43.4517 53.4748 43.4517C53.0913 43.4517 52.7717 43.5511 52.516 43.75C52.2603 43.946 52.0671 44.2131 51.9364 44.5511C51.8086 44.8892 51.7447 45.267 51.7447 45.6847C51.7447 46.1136 51.81 46.4901 51.9407 46.8139C52.0714 47.1378 52.2646 47.3906 52.5202 47.5724C52.7788 47.7543 53.0969 47.8452 53.4748 47.8452ZM68.6761 43.1108H67.3466C67.2955 42.8267 67.2003 42.5767 67.0611 42.3608C66.9219 42.1449 66.7514 41.9616 66.5497 41.8111C66.348 41.6605 66.1222 41.5469 65.8722 41.4702C65.625 41.3935 65.3622 41.3551 65.0838 41.3551C64.581 41.3551 64.1307 41.4815 63.733 41.7344C63.3381 41.9872 63.0256 42.358 62.7955 42.8466C62.5682 43.3352 62.4545 43.9318 62.4545 44.6364C62.4545 45.3466 62.5682 45.946 62.7955 46.4347C63.0256 46.9233 63.3395 47.2926 63.7372 47.5426C64.1349 47.7926 64.5824 47.9176 65.0795 47.9176C65.3551 47.9176 65.6165 47.8807 65.8636 47.8068C66.1136 47.7301 66.3395 47.6179 66.5412 47.4702C66.7429 47.3224 66.9134 47.142 67.0526 46.929C67.1946 46.7131 67.2926 46.4659 67.3466 46.1875L68.6761 46.1918C68.6051 46.6207 68.4673 47.0156 68.2628 47.3764C68.0611 47.7344 67.8011 48.044 67.483 48.3054C67.1676 48.5639 66.8068 48.7642 66.4006 48.9062C65.9943 49.0483 65.5511 49.1193 65.071 49.1193C64.3153 49.1193 63.642 48.9403 63.0511 48.5824C62.4602 48.2216 61.9943 47.706 61.6534 47.0355C61.3153 46.3651 61.1463 45.5653 61.1463 44.6364C61.1463 43.7045 61.3168 42.9048 61.6577 42.2372C61.9986 41.5668 62.4645 41.0526 63.0554 40.6946C63.6463 40.3338 64.3182 40.1534 65.071 40.1534C65.5341 40.1534 65.9659 40.2202 66.3665 40.3537C66.7699 40.4844 67.1321 40.6776 67.4531 40.9332C67.7741 41.1861 68.0398 41.4957 68.25 41.8622C68.4602 42.2259 68.6023 42.642 68.6761 43.1108ZM72.0543 49.1449C71.6396 49.1449 71.2646 49.0682 70.9293 48.9148C70.5941 48.7585 70.3285 48.5327 70.1325 48.2372C69.9393 47.9418 69.8427 47.5795 69.8427 47.1506C69.8427 46.7812 69.9137 46.4773 70.0558 46.2386C70.1978 46 70.3896 45.8111 70.631 45.6719C70.8725 45.5327 71.1424 45.4276 71.4407 45.3565C71.739 45.2855 72.043 45.2315 72.3526 45.1946C72.7447 45.1491 73.0629 45.1122 73.3072 45.0838C73.5515 45.0526 73.729 45.0028 73.8398 44.9347C73.9506 44.8665 74.006 44.7557 74.006 44.6023V44.5724C74.006 44.2003 73.9009 43.9119 73.6907 43.7074C73.4833 43.5028 73.1737 43.4006 72.7617 43.4006C72.3327 43.4006 71.9947 43.4957 71.7475 43.6861C71.5032 43.8736 71.3342 44.0824 71.2404 44.3125L70.043 44.0398C70.185 43.642 70.3924 43.321 70.6651 43.0767C70.9407 42.8295 71.2575 42.6506 71.6154 42.5398C71.9734 42.4261 72.3498 42.3693 72.7447 42.3693C73.006 42.3693 73.283 42.4006 73.5756 42.4631C73.8711 42.5227 74.1467 42.6335 74.4023 42.7955C74.6609 42.9574 74.8725 43.1889 75.0373 43.4901C75.2021 43.7884 75.2844 44.1761 75.2844 44.6534V49H74.0401V48.1051H73.989C73.9066 48.2699 73.783 48.4318 73.6183 48.5909C73.4535 48.75 73.2418 48.8821 72.9833 48.9872C72.7248 49.0923 72.4151 49.1449 72.0543 49.1449ZM72.3313 48.1222C72.6836 48.1222 72.9847 48.0526 73.2347 47.9134C73.4876 47.7741 73.6793 47.5923 73.81 47.3679C73.9435 47.1406 74.0103 46.8977 74.0103 46.6392V45.7955C73.9648 45.8409 73.8768 45.8835 73.7461 45.9233C73.6183 45.9602 73.4719 45.9929 73.3072 46.0213C73.1424 46.0469 72.9819 46.071 72.8256 46.0938C72.6694 46.1136 72.5387 46.1307 72.4336 46.1449C72.1864 46.1761 71.9606 46.2287 71.756 46.3026C71.5543 46.3764 71.3924 46.483 71.2702 46.6222C71.1509 46.7585 71.0913 46.9403 71.0913 47.1676C71.0913 47.483 71.2077 47.7216 71.4407 47.8835C71.6737 48.0426 71.9705 48.1222 72.3313 48.1222ZM76.9815 51.4545V42.4545H78.2259V43.5156H78.3324C78.4063 43.3793 78.5128 43.2216 78.652 43.0426C78.7912 42.8636 78.9844 42.7074 79.2315 42.5739C79.4787 42.4375 79.8054 42.3693 80.2116 42.3693C80.7401 42.3693 81.2116 42.5028 81.6264 42.7699C82.0412 43.0369 82.3665 43.4219 82.6023 43.9247C82.8409 44.4276 82.9602 45.0327 82.9602 45.7401C82.9602 46.4474 82.8423 47.054 82.6065 47.5597C82.3707 48.0625 82.0469 48.4503 81.6349 48.723C81.223 48.9929 80.7528 49.1278 80.2244 49.1278C79.8267 49.1278 79.5014 49.0611 79.2486 48.9276C78.9986 48.794 78.8026 48.6378 78.6605 48.4588C78.5185 48.2798 78.4091 48.1207 78.3324 47.9815H78.2557V51.4545H76.9815ZM78.2301 45.7273C78.2301 46.1875 78.2969 46.5909 78.4304 46.9375C78.5639 47.2841 78.7571 47.5554 79.0099 47.7514C79.2628 47.9446 79.5724 48.0412 79.9389 48.0412C80.3196 48.0412 80.6378 47.9403 80.8935 47.7386C81.1491 47.5341 81.3423 47.2571 81.473 46.9077C81.6065 46.5582 81.6733 46.1648 81.6733 45.7273C81.6733 45.2955 81.608 44.9077 81.4773 44.5639C81.3494 44.2202 81.1563 43.9489 80.8977 43.75C80.642 43.5511 80.3224 43.4517 79.9389 43.4517C79.5696 43.4517 79.2571 43.5469 79.0014 43.7372C78.7486 43.9276 78.5568 44.1932 78.4261 44.5341C78.2955 44.875 78.2301 45.2727 78.2301 45.7273ZM84.3878 49V42.4545H85.6619V49H84.3878ZM85.0312 41.4446C84.8097 41.4446 84.6193 41.3707 84.4602 41.223C84.304 41.0724 84.2259 40.8935 84.2259 40.6861C84.2259 40.4759 84.304 40.2969 84.4602 40.1491C84.6193 39.9986 84.8097 39.9233 85.0312 39.9233C85.2528 39.9233 85.4418 39.9986 85.598 40.1491C85.7571 40.2969 85.8366 40.4759 85.8366 40.6861C85.8366 40.8935 85.7571 41.0724 85.598 41.223C85.4418 41.3707 85.2528 41.4446 85.0312 41.4446ZM90.4315 42.4545V43.4773H86.8562V42.4545H90.4315ZM87.815 40.8864H89.0891V47.0781C89.0891 47.3253 89.1261 47.5114 89.1999 47.6364C89.2738 47.7585 89.369 47.8423 89.4854 47.8878C89.6048 47.9304 89.734 47.9517 89.8732 47.9517C89.9755 47.9517 90.065 47.9446 90.1417 47.9304C90.2184 47.9162 90.2781 47.9048 90.3207 47.8963L90.5508 48.9489C90.4769 48.9773 90.3718 49.0057 90.2354 49.0341C90.0991 49.0653 89.9286 49.0824 89.7241 49.0852C89.3888 49.0909 89.0763 49.0312 88.7866 48.9062C88.4968 48.7812 88.2624 48.5881 88.0835 48.3267C87.9045 48.0653 87.815 47.7372 87.815 47.3423V40.8864ZM93.7457 49.1449C93.331 49.1449 92.956 49.0682 92.6207 48.9148C92.2855 48.7585 92.0199 48.5327 91.8239 48.2372C91.6307 47.9418 91.5341 47.5795 91.5341 47.1506C91.5341 46.7812 91.6051 46.4773 91.7472 46.2386C91.8892 46 92.081 45.8111 92.3224 45.6719C92.5639 45.5327 92.8338 45.4276 93.1321 45.3565C93.4304 45.2855 93.7344 45.2315 94.044 45.1946C94.4361 45.1491 94.7543 45.1122 94.9986 45.0838C95.2429 45.0526 95.4205 45.0028 95.5312 44.9347C95.642 44.8665 95.6974 44.7557 95.6974 44.6023V44.5724C95.6974 44.2003 95.5923 43.9119 95.3821 43.7074C95.1747 43.5028 94.8651 43.4006 94.4531 43.4006C94.0241 43.4006 93.6861 43.4957 93.4389 43.6861C93.1946 43.8736 93.0256 44.0824 92.9318 44.3125L91.7344 44.0398C91.8764 43.642 92.0838 43.321 92.3565 43.0767C92.6321 42.8295 92.9489 42.6506 93.3068 42.5398C93.6648 42.4261 94.0412 42.3693 94.4361 42.3693C94.6974 42.3693 94.9744 42.4006 95.267 42.4631C95.5625 42.5227 95.8381 42.6335 96.0938 42.7955C96.3523 42.9574 96.5639 43.1889 96.7287 43.4901C96.8935 43.7884 96.9759 44.1761 96.9759 44.6534V49H95.7315V48.1051H95.6804C95.598 48.2699 95.4744 48.4318 95.3097 48.5909C95.1449 48.75 94.9332 48.8821 94.6747 48.9872C94.4162 49.0923 94.1065 49.1449 93.7457 49.1449ZM94.0227 48.1222C94.375 48.1222 94.6761 48.0526 94.9261 47.9134C95.179 47.7741 95.3707 47.5923 95.5014 47.3679C95.6349 47.1406 95.7017 46.8977 95.7017 46.6392V45.7955C95.6563 45.8409 95.5682 45.8835 95.4375 45.9233C95.3097 45.9602 95.1634 45.9929 94.9986 46.0213C94.8338 46.0469 94.6733 46.071 94.517 46.0938C94.3608 46.1136 94.2301 46.1307 94.125 46.1449C93.8778 46.1761 93.652 46.2287 93.4474 46.3026C93.2457 46.3764 93.0838 46.483 92.9616 46.6222C92.8423 46.7585 92.7827 46.9403 92.7827 47.1676C92.7827 47.483 92.8991 47.7216 93.1321 47.8835C93.3651 48.0426 93.6619 48.1222 94.0227 48.1222ZM99.9471 40.2727V49H98.6729V40.2727H99.9471ZM107.952 42.4545V43.4773H104.253V42.4545H107.952ZM105.267 49V41.696C105.267 41.2869 105.357 40.9474 105.536 40.6776C105.715 40.4048 105.952 40.2017 106.248 40.0682C106.543 39.9318 106.864 39.8636 107.211 39.8636C107.466 39.8636 107.685 39.8849 107.867 39.9276C108.049 39.9673 108.184 40.0043 108.272 40.0384L107.973 41.0696C107.914 41.0526 107.837 41.0327 107.743 41.0099C107.65 40.9844 107.536 40.9716 107.402 40.9716C107.093 40.9716 106.871 41.0483 106.738 41.2017C106.607 41.3551 106.542 41.5767 106.542 41.8665V49H105.267ZM111.766 49.1321C111.152 49.1321 110.617 48.9915 110.159 48.7102C109.702 48.429 109.347 48.0355 109.094 47.5298C108.841 47.0241 108.715 46.4332 108.715 45.7571C108.715 45.0781 108.841 44.4844 109.094 43.9759C109.347 43.4673 109.702 43.0724 110.159 42.7912C110.617 42.5099 111.152 42.3693 111.766 42.3693C112.38 42.3693 112.915 42.5099 113.373 42.7912C113.83 43.0724 114.185 43.4673 114.438 43.9759C114.691 44.4844 114.817 45.0781 114.817 45.7571C114.817 46.4332 114.691 47.0241 114.438 47.5298C114.185 48.0355 113.83 48.429 113.373 48.7102C112.915 48.9915 112.38 49.1321 111.766 49.1321ZM111.77 48.0625C112.168 48.0625 112.498 47.9574 112.759 47.7472C113.02 47.5369 113.213 47.2571 113.338 46.9077C113.466 46.5582 113.53 46.1733 113.53 45.7528C113.53 45.3352 113.466 44.9517 113.338 44.6023C113.213 44.25 113.02 43.9673 112.759 43.7543C112.498 43.5412 112.168 43.4347 111.77 43.4347C111.37 43.4347 111.037 43.5412 110.773 43.7543C110.512 43.9673 110.317 44.25 110.189 44.6023C110.064 44.9517 110.002 45.3352 110.002 45.7528C110.002 46.1733 110.064 46.5582 110.189 46.9077C110.317 47.2571 110.512 47.5369 110.773 47.7472C111.037 47.9574 111.37 48.0625 111.77 48.0625ZM116.239 49V42.4545H117.471V43.4943H117.539C117.658 43.142 117.869 42.8651 118.17 42.6634C118.474 42.4588 118.817 42.3565 119.201 42.3565C119.281 42.3565 119.374 42.3594 119.482 42.3651C119.593 42.3707 119.68 42.3778 119.742 42.3864V43.6051C119.691 43.5909 119.6 43.5753 119.469 43.5582C119.339 43.5384 119.208 43.5284 119.077 43.5284C118.776 43.5284 118.508 43.5923 118.272 43.7202C118.039 43.8452 117.854 44.0199 117.718 44.2443C117.582 44.4659 117.513 44.7187 117.513 45.0028V49H116.239ZM124.86 49H123.462L126.603 40.2727H128.124L131.265 49H129.867L127.4 41.858H127.332L124.86 49ZM125.094 45.5824H129.629V46.6903H125.094V45.5824ZM134.768 49.1278C134.239 49.1278 133.768 48.9929 133.353 48.723C132.941 48.4503 132.617 48.0625 132.381 47.5597C132.148 47.054 132.032 46.4474 132.032 45.7401C132.032 45.0327 132.15 44.4276 132.386 43.9247C132.624 43.4219 132.951 43.0369 133.366 42.7699C133.781 42.5028 134.251 42.3693 134.776 42.3693C135.183 42.3693 135.509 42.4375 135.756 42.5739C136.006 42.7074 136.2 42.8636 136.336 43.0426C136.475 43.2216 136.583 43.3793 136.66 43.5156H136.737V40.2727H138.011V49H136.766V47.9815H136.66C136.583 48.1207 136.472 48.2798 136.327 48.4588C136.185 48.6378 135.989 48.794 135.739 48.9276C135.489 49.0611 135.165 49.1278 134.768 49.1278ZM135.049 48.0412C135.415 48.0412 135.725 47.9446 135.978 47.7514C136.234 47.5554 136.427 47.2841 136.558 46.9375C136.691 46.5909 136.758 46.1875 136.758 45.7273C136.758 45.2727 136.692 44.875 136.562 44.5341C136.431 44.1932 136.239 43.9276 135.987 43.7372C135.734 43.5469 135.421 43.4517 135.049 43.4517C134.665 43.4517 134.346 43.5511 134.09 43.75C133.835 43.9489 133.641 44.2202 133.511 44.5639C133.383 44.9077 133.319 45.2955 133.319 45.7273C133.319 46.1648 133.384 46.5582 133.515 46.9077C133.646 47.2571 133.839 47.5341 134.094 47.7386C134.353 47.9403 134.671 48.0412 135.049 48.0412ZM141.734 49.1449C141.319 49.1449 140.944 49.0682 140.609 48.9148C140.274 48.7585 140.008 48.5327 139.812 48.2372C139.619 47.9418 139.522 47.5795 139.522 47.1506C139.522 46.7812 139.593 46.4773 139.735 46.2386C139.877 46 140.069 45.8111 140.311 45.6719C140.552 45.5327 140.822 45.4276 141.12 45.3565C141.419 45.2855 141.723 45.2315 142.032 45.1946C142.424 45.1491 142.743 45.1122 142.987 45.0838C143.231 45.0526 143.409 45.0028 143.52 44.9347C143.63 44.8665 143.686 44.7557 143.686 44.6023V44.5724C143.686 44.2003 143.581 43.9119 143.37 43.7074C143.163 43.5028 142.853 43.4006 142.441 43.4006C142.012 43.4006 141.674 43.4957 141.427 43.6861C141.183 43.8736 141.014 44.0824 140.92 44.3125L139.723 44.0398C139.865 43.642 140.072 43.321 140.345 43.0767C140.62 42.8295 140.937 42.6506 141.295 42.5398C141.653 42.4261 142.029 42.3693 142.424 42.3693C142.686 42.3693 142.963 42.4006 143.255 42.4631C143.551 42.5227 143.826 42.6335 144.082 42.7955C144.341 42.9574 144.552 43.1889 144.717 43.4901C144.882 43.7884 144.964 44.1761 144.964 44.6534V49H143.72V48.1051H143.669C143.586 48.2699 143.463 48.4318 143.298 48.5909C143.133 48.75 142.922 48.8821 142.663 48.9872C142.404 49.0923 142.095 49.1449 141.734 49.1449ZM142.011 48.1222C142.363 48.1222 142.664 48.0526 142.914 47.9134C143.167 47.7741 143.359 47.5923 143.49 47.3679C143.623 47.1406 143.69 46.8977 143.69 46.6392V45.7955C143.645 45.8409 143.556 45.8835 143.426 45.9233C143.298 45.9602 143.152 45.9929 142.987 46.0213C142.822 46.0469 142.662 46.071 142.505 46.0938C142.349 46.1136 142.218 46.1307 142.113 46.1449C141.866 46.1761 141.64 46.2287 141.436 46.3026C141.234 46.3764 141.072 46.483 140.95 46.6222C140.831 46.7585 140.771 46.9403 140.771 47.1676C140.771 47.483 140.887 47.7216 141.12 47.8835C141.353 48.0426 141.65 48.1222 142.011 48.1222ZM146.661 51.4545V42.4545H147.906V43.5156H148.012C148.086 43.3793 148.192 43.2216 148.332 43.0426C148.471 42.8636 148.664 42.7074 148.911 42.5739C149.158 42.4375 149.485 42.3693 149.891 42.3693C150.42 42.3693 150.891 42.5028 151.306 42.7699C151.721 43.0369 152.046 43.4219 152.282 43.9247C152.521 44.4276 152.64 45.0327 152.64 45.7401C152.64 46.4474 152.522 47.054 152.286 47.5597C152.05 48.0625 151.727 48.4503 151.315 48.723C150.903 48.9929 150.433 49.1278 149.904 49.1278C149.506 49.1278 149.181 49.0611 148.928 48.9276C148.678 48.794 148.482 48.6378 148.34 48.4588C148.198 48.2798 148.089 48.1207 148.012 47.9815H147.935V51.4545H146.661ZM147.91 45.7273C147.91 46.1875 147.977 46.5909 148.11 46.9375C148.244 47.2841 148.437 47.5554 148.69 47.7514C148.942 47.9446 149.252 48.0412 149.619 48.0412C149.999 48.0412 150.317 47.9403 150.573 47.7386C150.829 47.5341 151.022 47.2571 151.153 46.9077C151.286 46.5582 151.353 46.1648 151.353 45.7273C151.353 45.2955 151.288 44.9077 151.157 44.5639C151.029 44.2202 150.836 43.9489 150.577 43.75C150.322 43.5511 150.002 43.4517 149.619 43.4517C149.249 43.4517 148.937 43.5469 148.681 43.7372C148.428 43.9276 148.237 44.1932 148.106 44.5341C147.975 44.875 147.91 45.2727 147.91 45.7273ZM157.123 42.4545V43.4773H153.548V42.4545H157.123ZM154.506 40.8864H155.781V47.0781C155.781 47.3253 155.817 47.5114 155.891 47.6364C155.965 47.7585 156.06 47.8423 156.177 47.8878C156.296 47.9304 156.425 47.9517 156.565 47.9517C156.667 47.9517 156.756 47.9446 156.833 47.9304C156.91 47.9162 156.969 47.9048 157.012 47.8963L157.242 48.9489C157.168 48.9773 157.063 49.0057 156.927 49.0341C156.79 49.0653 156.62 49.0824 156.415 49.0852C156.08 49.0909 155.768 49.0312 155.478 48.9062C155.188 48.7812 154.954 48.5881 154.775 48.3267C154.596 48.0653 154.506 47.7372 154.506 47.3423V40.8864ZM160.437 49.1449C160.022 49.1449 159.647 49.0682 159.312 48.9148C158.977 48.7585 158.711 48.5327 158.515 48.2372C158.322 47.9418 158.225 47.5795 158.225 47.1506C158.225 46.7812 158.297 46.4773 158.439 46.2386C158.581 46 158.772 45.8111 159.014 45.6719C159.255 45.5327 159.525 45.4276 159.824 45.3565C160.122 45.2855 160.426 45.2315 160.735 45.1946C161.127 45.1491 161.446 45.1122 161.69 45.0838C161.934 45.0526 162.112 45.0028 162.223 44.9347C162.333 44.8665 162.389 44.7557 162.389 44.6023V44.5724C162.389 44.2003 162.284 43.9119 162.074 43.7074C161.866 43.5028 161.556 43.4006 161.145 43.4006C160.716 43.4006 160.377 43.4957 160.13 43.6861C159.886 43.8736 159.717 44.0824 159.623 44.3125L158.426 44.0398C158.568 43.642 158.775 43.321 159.048 43.0767C159.324 42.8295 159.64 42.6506 159.998 42.5398C160.356 42.4261 160.733 42.3693 161.127 42.3693C161.389 42.3693 161.666 42.4006 161.958 42.4631C162.254 42.5227 162.529 42.6335 162.785 42.7955C163.044 42.9574 163.255 43.1889 163.42 43.4901C163.585 43.7884 163.667 44.1761 163.667 44.6534V49H162.423V48.1051H162.372C162.289 48.2699 162.166 48.4318 162.001 48.5909C161.836 48.75 161.625 48.8821 161.366 48.9872C161.108 49.0923 160.798 49.1449 160.437 49.1449ZM160.714 48.1222C161.066 48.1222 161.368 48.0526 161.618 47.9134C161.87 47.7741 162.062 47.5923 162.193 47.3679C162.326 47.1406 162.393 46.8977 162.393 46.6392V45.7955C162.348 45.8409 162.26 45.8835 162.129 45.9233C162.001 45.9602 161.855 45.9929 161.69 46.0213C161.525 46.0469 161.365 46.071 161.208 46.0938C161.052 46.1136 160.922 46.1307 160.816 46.1449C160.569 46.1761 160.343 46.2287 160.139 46.3026C159.937 46.3764 159.775 46.483 159.653 46.6222C159.534 46.7585 159.474 46.9403 159.474 47.1676C159.474 47.483 159.591 47.7216 159.824 47.8835C160.056 48.0426 160.353 48.1222 160.714 48.1222ZM168.42 42.4545V43.4773H164.844V42.4545H168.42ZM165.803 40.8864H167.077V47.0781C167.077 47.3253 167.114 47.5114 167.188 47.6364C167.262 47.7585 167.357 47.8423 167.474 47.8878C167.593 47.9304 167.722 47.9517 167.862 47.9517C167.964 47.9517 168.053 47.9446 168.13 47.9304C168.207 47.9162 168.266 47.9048 168.309 47.8963L168.539 48.9489C168.465 48.9773 168.36 49.0057 168.224 49.0341C168.087 49.0653 167.917 49.0824 167.712 49.0852C167.377 49.0909 167.065 49.0312 166.775 48.9062C166.485 48.7812 166.251 48.5881 166.072 48.3267C165.893 48.0653 165.803 47.7372 165.803 47.3423V40.8864ZM169.829 49V42.4545H171.103V49H169.829ZM170.473 41.4446C170.251 41.4446 170.061 41.3707 169.902 41.223C169.745 41.0724 169.667 40.8935 169.667 40.6861C169.667 40.4759 169.745 40.2969 169.902 40.1491C170.061 39.9986 170.251 39.9233 170.473 39.9233C170.694 39.9233 170.883 39.9986 171.039 40.1491C171.199 40.2969 171.278 40.4759 171.278 40.6861C171.278 40.8935 171.199 41.0724 171.039 41.223C170.883 41.3707 170.694 41.4446 170.473 41.4446ZM175.575 49.1321C174.961 49.1321 174.425 48.9915 173.968 48.7102C173.511 48.429 173.156 48.0355 172.903 47.5298C172.65 47.0241 172.523 46.4332 172.523 45.7571C172.523 45.0781 172.65 44.4844 172.903 43.9759C173.156 43.4673 173.511 43.0724 173.968 42.7912C174.425 42.5099 174.961 42.3693 175.575 42.3693C176.188 42.3693 176.724 42.5099 177.181 42.7912C177.638 43.0724 177.994 43.4673 178.246 43.9759C178.499 44.4844 178.626 45.0781 178.626 45.7571C178.626 46.4332 178.499 47.0241 178.246 47.5298C177.994 48.0355 177.638 48.429 177.181 48.7102C176.724 48.9915 176.188 49.1321 175.575 49.1321ZM175.579 48.0625C175.977 48.0625 176.306 47.9574 176.567 47.7472C176.829 47.5369 177.022 47.2571 177.147 46.9077C177.275 46.5582 177.339 46.1733 177.339 45.7528C177.339 45.3352 177.275 44.9517 177.147 44.6023C177.022 44.25 176.829 43.9673 176.567 43.7543C176.306 43.5412 175.977 43.4347 175.579 43.4347C175.178 43.4347 174.846 43.5412 174.582 43.7543C174.32 43.9673 174.126 44.25 173.998 44.6023C173.873 44.9517 173.81 45.3352 173.81 45.7528C173.81 46.1733 173.873 46.5582 173.998 46.9077C174.126 47.2571 174.32 47.5369 174.582 47.7472C174.846 47.9574 175.178 48.0625 175.579 48.0625ZM181.322 45.1136V49H180.048V42.4545H181.271V43.5199H181.352C181.502 43.1733 181.738 42.8949 182.059 42.6847C182.383 42.4744 182.791 42.3693 183.282 42.3693C183.728 42.3693 184.119 42.4631 184.454 42.6506C184.789 42.8352 185.049 43.1108 185.234 43.4773C185.419 43.8437 185.511 44.2969 185.511 44.8366V49H184.237V44.9901C184.237 44.5156 184.113 44.1449 183.866 43.8778C183.619 43.608 183.279 43.473 182.848 43.473C182.552 43.473 182.289 43.5369 182.059 43.6648C181.832 43.7926 181.652 43.9801 181.518 44.2273C181.387 44.4716 181.322 44.767 181.322 45.1136Z" fill="#054061"/>
</svg>
