<svg width="162" height="155" viewBox="0 0 162 155" fill="none" xmlns="http://www.w3.org/2000/svg">
<path d="M146.246 82.8724C150.49 83.2222 154.254 80.0597 154.178 75.802C153.944 62.5916 150.323 49.6156 143.604 38.1432C135.582 24.4457 123.535 13.5584 109.105 6.96606C94.6747 0.373714 78.5644 -1.60278 62.971 1.30611C47.3775 4.215 33.0599 11.8677 21.9708 23.2205C10.8816 34.5734 3.56065 49.0738 1.00625 64.7443C-1.54815 80.4148 0.788372 96.4925 7.69717 110.785C14.606 125.078 25.7507 136.889 39.6116 144.609C51.2173 151.072 64.254 154.404 77.449 154.343C81.7104 154.324 84.7895 150.487 84.3447 146.248C83.8997 142.009 80.0937 138.984 75.8319 138.897C65.8058 138.691 55.9392 136.04 47.1084 131.121C36.0196 124.946 27.1038 115.496 21.5768 104.062C16.0497 92.6284 14.1805 79.7662 16.2241 67.2298C18.2676 54.6934 24.1243 43.0931 32.9957 34.0108C41.867 24.9286 53.3211 18.8064 65.7958 16.4793C78.2706 14.1522 91.1588 15.7334 102.703 21.0073C114.247 26.2811 123.885 34.991 130.303 45.949C135.416 54.681 138.287 64.5018 138.715 74.537C138.897 78.7905 142.003 82.5226 146.246 82.8724Z" fill="url(#paint0_linear_266_114)"/>
<path d="M8.96422 64.0385C4.7821 63.2323 0.697712 65.9712 0.31394 70.213C-1.13667 86.2464 2.45612 102.406 10.6931 116.383C18.9276 130.355 31.3143 141.317 46.0292 147.802C49.9306 149.521 54.308 147.268 55.6261 143.214C56.9431 139.163 54.6997 134.854 50.8455 133.039C39.6868 127.786 30.2988 119.274 23.9735 108.541C17.6463 97.8044 14.7444 85.458 15.5508 73.1369C15.8288 68.8891 13.1442 64.8443 8.96422 64.0385Z" fill="#F8C33A"/>
<path d="M9.51663 92.9351C5.37117 93.9021 2.75685 98.0634 4.13013 102.093C9.32401 117.331 19.1772 130.63 32.3858 140.042C45.5899 149.451 61.3629 154.416 77.4422 154.344C81.7036 154.324 84.7833 150.487 84.3388 146.249C83.8943 142.01 80.0884 138.985 75.8266 138.897C63.5007 138.643 51.4674 134.693 41.3277 127.468C31.1845 120.24 23.5147 110.147 19.2409 98.5673C17.7661 94.5714 13.6647 91.9676 9.51663 92.9351Z" fill="url(#paint1_linear_266_114)"/>
<path d="M75.6044 73.6157H71.0888C70.96 72.8752 70.7225 72.2192 70.3764 71.6477C70.0303 71.0681 69.5997 70.5771 69.0845 70.1747C68.5694 69.7722 67.9818 69.4703 67.3217 69.2691C66.6697 69.0598 65.9654 68.9552 65.2088 68.9552C63.8646 68.9552 62.6733 69.2933 61.6349 69.9694C60.5966 70.6375 59.7836 71.6195 59.196 72.9154C58.6084 74.2033 58.3146 75.7769 58.3146 77.6363C58.3146 79.5279 58.6084 81.1216 59.196 82.4176C59.7917 83.7054 60.6046 84.6794 61.6349 85.3394C62.6733 85.9914 63.8606 86.3174 65.1967 86.3174C65.9373 86.3174 66.6295 86.2208 67.2734 86.0276C67.9254 85.8264 68.509 85.5326 69.0241 85.1462C69.5473 84.7599 69.986 84.285 70.3402 83.7215C70.7024 83.1581 70.9519 82.5141 71.0888 81.7897L75.6044 81.8139C75.4354 82.989 75.0691 84.0918 74.5057 85.1221C73.9503 86.1524 73.2218 87.062 72.3203 87.8508C71.4188 88.6316 70.3643 89.2433 69.157 89.686C67.9496 90.1207 66.6094 90.338 65.1364 90.338C62.9631 90.338 61.0232 89.8349 59.3168 88.8288C57.6103 87.8226 56.2661 86.3697 55.2841 84.4701C54.3021 82.5705 53.8111 80.2926 53.8111 77.6363C53.8111 74.972 54.3061 72.6941 55.2962 70.8025C56.2862 68.9029 57.6345 67.45 59.3409 66.4438C61.0473 65.4377 62.9792 64.9346 65.1364 64.9346C66.5128 64.9346 67.7926 65.1278 68.9759 65.5141C70.1591 65.9005 71.2135 66.468 72.1392 67.2166C73.0649 67.9571 73.8255 68.8667 74.4212 69.9453C75.0249 71.0158 75.4193 72.2393 75.6044 73.6157ZM100.872 73.6157H96.3564C96.2276 72.8752 95.9901 72.2192 95.644 71.6477C95.2979 71.0681 94.8672 70.5771 94.3521 70.1747C93.8369 69.7722 93.2493 69.4703 92.5893 69.2691C91.9373 69.0598 91.233 68.9552 90.4764 68.9552C89.1322 68.9552 87.9409 69.2933 86.9025 69.9694C85.8642 70.6375 85.0512 71.6195 84.4636 72.9154C83.876 74.2033 83.5822 75.7769 83.5822 77.6363C83.5822 79.5279 83.876 81.1216 84.4636 82.4176C85.0592 83.7054 85.8722 84.6794 86.9025 85.3394C87.9409 85.9914 89.1281 86.3174 90.4643 86.3174C91.2048 86.3174 91.8971 86.2208 92.541 86.0276C93.193 85.8264 93.7766 85.5326 94.2917 85.1462C94.8149 84.7599 95.2536 84.285 95.6078 83.7215C95.97 83.1581 96.2195 82.5141 96.3564 81.7897L100.872 81.8139C100.703 82.989 100.337 84.0918 99.7733 85.1221C99.2179 86.1524 98.4894 87.062 97.5879 87.8508C96.6864 88.6316 95.6319 89.2433 94.4245 89.686C93.2172 90.1207 91.877 90.338 90.4039 90.338C88.2306 90.338 86.2908 89.8349 84.5843 88.8288C82.8779 87.8226 81.5337 86.3697 80.5517 84.4701C79.5697 82.5705 79.0787 80.2926 79.0787 77.6363C79.0787 74.972 79.5737 72.6941 80.5637 70.8025C81.5538 68.9029 82.902 67.45 84.6085 66.4438C86.3149 65.4377 88.2467 64.9346 90.4039 64.9346C91.7804 64.9346 93.0602 65.1278 94.2434 65.5141C95.4267 65.9005 96.4811 66.468 97.4068 67.2166C98.3324 67.9571 99.0931 68.8667 99.6887 69.9453C100.292 71.0158 100.687 72.2393 100.872 73.6157Z" fill="#2D4E70"/>
<path d="M91.3345 151.138C90.7498 151.138 90.2479 150.99 89.8288 150.695C89.4122 150.396 89.0914 149.967 88.8665 149.405C88.6439 148.842 88.5327 148.164 88.5327 147.371C88.535 146.578 88.6475 145.903 88.87 145.347C89.0949 144.788 89.4157 144.362 89.8324 144.068C90.2514 143.775 90.7521 143.628 91.3345 143.628C91.9169 143.628 92.4176 143.775 92.8366 144.068C93.2557 144.362 93.5765 144.788 93.799 145.347C94.0239 145.905 94.1364 146.58 94.1364 147.371C94.1364 148.166 94.0239 148.846 93.799 149.409C93.5765 149.97 93.2557 150.399 92.8366 150.695C92.42 150.99 91.9193 151.138 91.3345 151.138ZM91.3345 150.027C91.7891 150.027 92.1477 149.803 92.4105 149.356C92.6757 148.906 92.8082 148.244 92.8082 147.371C92.8082 146.793 92.7479 146.308 92.6271 145.915C92.5064 145.522 92.3359 145.226 92.1158 145.027C91.8956 144.826 91.6352 144.725 91.3345 144.725C90.8823 144.725 90.5249 144.95 90.2621 145.4C89.9993 145.847 89.8667 146.504 89.8643 147.371C89.862 147.951 89.92 148.438 90.0384 148.834C90.1591 149.229 90.3295 149.527 90.5497 149.729C90.7699 149.927 91.0315 150.027 91.3345 150.027ZM99.2047 149.636V149.253C99.2047 148.971 99.2639 148.712 99.3823 148.475C99.503 148.238 99.6782 148.048 99.9078 147.903C100.137 147.759 100.416 147.687 100.742 147.687C101.079 147.687 101.36 147.759 101.588 147.903C101.815 148.045 101.986 148.235 102.102 148.472C102.221 148.708 102.28 148.969 102.28 149.253V149.636C102.28 149.918 102.221 150.177 102.102 150.414C101.984 150.651 101.81 150.841 101.58 150.986C101.353 151.13 101.074 151.202 100.742 151.202C100.411 151.202 100.13 151.13 99.9007 150.986C99.6711 150.841 99.4971 150.651 99.3787 150.414C99.2627 150.177 99.2047 149.918 99.2047 149.636ZM100.132 149.253V149.636C100.132 149.823 100.177 149.995 100.267 150.151C100.356 150.307 100.515 150.386 100.742 150.386C100.972 150.386 101.129 150.309 101.215 150.155C101.302 149.999 101.346 149.826 101.346 149.636V149.253C101.346 149.063 101.305 148.891 101.222 148.734C101.139 148.576 100.979 148.496 100.742 148.496C100.52 148.496 100.362 148.576 100.27 148.734C100.178 148.891 100.132 149.063 100.132 149.253ZM95.508 145.474V145.091C95.508 144.807 95.5684 144.546 95.6891 144.31C95.8098 144.073 95.985 143.883 96.2147 143.741C96.4443 143.597 96.7225 143.525 97.0492 143.525C97.383 143.525 97.6635 143.597 97.8908 143.741C98.1204 143.883 98.2933 144.073 98.4093 144.31C98.5253 144.546 98.5833 144.807 98.5833 145.091V145.474C98.5833 145.758 98.5241 146.019 98.4057 146.256C98.2897 146.49 98.1169 146.678 97.8873 146.82C97.6576 146.962 97.3783 147.033 97.0492 147.033C96.7154 147.033 96.4337 146.962 96.204 146.82C95.9767 146.678 95.8039 146.489 95.6855 146.252C95.5672 146.015 95.508 145.756 95.508 145.474ZM96.4419 145.091V145.474C96.4419 145.664 96.4857 145.837 96.5733 145.993C96.6633 146.147 96.8219 146.224 97.0492 146.224C97.2765 146.224 97.4327 146.147 97.5179 145.993C97.6055 145.837 97.6493 145.664 97.6493 145.474V145.091C97.6493 144.901 97.6079 144.729 97.525 144.572C97.4422 144.414 97.2836 144.334 97.0492 144.334C96.8243 144.334 96.6668 144.414 96.5769 144.572C96.4869 144.731 96.4419 144.904 96.4419 145.091ZM95.9128 151L100.913 143.727H101.801L96.8006 151H95.9128Z" fill="black" fill-opacity="0.7"/>
<path d="M138.604 86.7272V93.9999H137.287V88.0092H137.244L135.543 89.0958V87.8884L137.351 86.7272H138.604ZM143.139 94.1384C142.554 94.1384 142.053 93.9905 141.634 93.6945C141.217 93.3962 140.896 92.9666 140.671 92.4055C140.449 91.842 140.337 91.1638 140.337 90.3707C140.34 89.5776 140.452 88.9029 140.675 88.3465C140.9 87.7878 141.22 87.3617 141.637 87.0681C142.056 86.7746 142.557 86.6278 143.139 86.6278C143.722 86.6278 144.222 86.7746 144.641 87.0681C145.06 87.3617 145.381 87.7878 145.604 88.3465C145.829 88.9052 145.941 89.58 145.941 90.3707C145.941 91.1661 145.829 91.8456 145.604 92.409C145.381 92.9701 145.06 93.3986 144.641 93.6945C144.225 93.9905 143.724 94.1384 143.139 94.1384ZM143.139 93.0269C143.594 93.0269 143.952 92.8032 144.215 92.3558C144.48 91.906 144.613 91.2443 144.613 90.3707C144.613 89.793 144.553 89.3077 144.432 88.9147C144.311 88.5217 144.141 88.2258 143.92 88.0269C143.7 87.8257 143.44 87.7251 143.139 87.7251C142.687 87.7251 142.33 87.95 142.067 88.3998C141.804 88.8472 141.671 89.5042 141.669 90.3707C141.667 90.9507 141.725 91.4384 141.843 91.8337C141.964 92.2291 142.134 92.5274 142.354 92.7286C142.575 92.9275 142.836 93.0269 143.139 93.0269ZM149.809 94.1384C149.224 94.1384 148.722 93.9905 148.303 93.6945C147.887 93.3962 147.566 92.9666 147.341 92.4055C147.119 91.842 147.007 91.1638 147.007 90.3707C147.01 89.5776 147.122 88.9029 147.345 88.3465C147.57 87.7878 147.89 87.3617 148.307 87.0681C148.726 86.7746 149.227 86.6278 149.809 86.6278C150.392 86.6278 150.892 86.7746 151.311 87.0681C151.73 87.3617 152.051 87.7878 152.274 88.3465C152.499 88.9052 152.611 89.58 152.611 90.3707C152.611 91.1661 152.499 91.8456 152.274 92.409C152.051 92.9701 151.73 93.3986 151.311 93.6945C150.895 93.9905 150.394 94.1384 149.809 94.1384ZM149.809 93.0269C150.264 93.0269 150.622 92.8032 150.885 92.3558C151.15 91.906 151.283 91.2443 151.283 90.3707C151.283 89.793 151.222 89.3077 151.102 88.9147C150.981 88.5217 150.811 88.2258 150.59 88.0269C150.37 87.8257 150.11 87.7251 149.809 87.7251C149.357 87.7251 148.999 87.95 148.737 88.3998C148.474 88.8472 148.341 89.5042 148.339 90.3707C148.337 90.9507 148.395 91.4384 148.513 91.8337C148.634 92.2291 148.804 92.5274 149.024 92.7286C149.244 92.9275 149.506 93.0269 149.809 93.0269ZM157.679 92.6363V92.2528C157.679 91.9711 157.739 91.7118 157.857 91.4751C157.978 91.2383 158.153 91.0478 158.382 90.9033C158.612 90.7589 158.89 90.6867 159.217 90.6867C159.553 90.6867 159.835 90.7589 160.062 90.9033C160.289 91.0454 160.461 91.2348 160.577 91.4715C160.695 91.7083 160.755 91.9687 160.755 92.2528V92.6363C160.755 92.918 160.695 93.1773 160.577 93.414C160.459 93.6507 160.285 93.8413 160.055 93.9857C159.828 94.1301 159.548 94.2024 159.217 94.2024C158.886 94.2024 158.605 94.1301 158.375 93.9857C158.146 93.8413 157.972 93.6507 157.853 93.414C157.737 93.1773 157.679 92.918 157.679 92.6363ZM158.606 92.2528V92.6363C158.606 92.8233 158.651 92.995 158.741 93.1512C158.831 93.3075 158.99 93.3856 159.217 93.3856C159.447 93.3856 159.604 93.3087 159.689 93.1548C159.777 92.9985 159.821 92.8257 159.821 92.6363V92.2528C159.821 92.0634 159.779 91.8906 159.696 91.7343C159.614 91.5757 159.454 91.4964 159.217 91.4964C158.994 91.4964 158.837 91.5757 158.745 91.7343C158.652 91.8906 158.606 92.0634 158.606 92.2528ZM153.983 88.4744V88.0908C153.983 87.8068 154.043 87.5463 154.164 87.3096C154.284 87.0729 154.46 86.8835 154.689 86.7414C154.919 86.597 155.197 86.5248 155.524 86.5248C155.858 86.5248 156.138 86.597 156.365 86.7414C156.595 86.8835 156.768 87.0729 156.884 87.3096C157 87.5463 157.058 87.8068 157.058 88.0908V88.4744C157.058 88.7585 156.999 89.0189 156.88 89.2556C156.764 89.49 156.592 89.6782 156.362 89.8203C156.132 89.9623 155.853 90.0333 155.524 90.0333C155.19 90.0333 154.908 89.9623 154.679 89.8203C154.451 89.6782 154.279 89.4888 154.16 89.2521C154.042 89.0153 153.983 88.7561 153.983 88.4744ZM154.917 88.0908V88.4744C154.917 88.6638 154.96 88.8366 155.048 88.9928C155.138 89.1467 155.297 89.2237 155.524 89.2237C155.751 89.2237 155.907 89.1467 155.993 88.9928C156.08 88.8366 156.124 88.6638 156.124 88.4744V88.0908C156.124 87.9015 156.083 87.7286 156 87.5724C155.917 87.4138 155.758 87.3345 155.524 87.3345C155.299 87.3345 155.141 87.4138 155.051 87.5724C154.962 87.731 154.917 87.9038 154.917 88.0908ZM154.387 93.9999L159.387 86.7272H160.275L155.275 93.9999H154.387Z" fill="black" fill-opacity="0.7"/>
<defs>
<linearGradient id="paint0_linear_266_114" x1="70.5421" y1="49.0042" x2="82.8999" y2="89.5127" gradientUnits="userSpaceOnUse">
<stop stop-color="#F8C33A"/>
<stop offset="1" stop-color="#2CA049"/>
</linearGradient>
<linearGradient id="paint1_linear_266_114" x1="53.5812" y1="122.704" x2="30.4216" y2="89.5412" gradientUnits="userSpaceOnUse">
<stop stop-color="#F6435C"/>
<stop offset="1" stop-color="#F6435C" stop-opacity="0"/>
</linearGradient>
</defs>
</svg>
