<svg width="163" height="155" viewBox="0 0 163 155" fill="none" xmlns="http://www.w3.org/2000/svg">
<path d="M146.816 83.3741C151.06 83.724 154.824 80.5615 154.749 76.3037C154.514 63.0934 150.893 50.1174 144.175 38.645C136.153 24.9475 124.105 14.0602 109.675 7.46783C95.245 0.875484 79.1347 -1.10101 63.5413 1.80788C47.9478 4.71677 33.6303 12.3694 22.5411 23.7223C11.4519 35.0752 4.13096 49.5756 1.57656 65.246C-0.977833 80.9165 1.35868 96.9943 8.26748 111.287C15.1763 125.579 26.321 137.391 40.182 145.111C51.7876 151.574 64.8243 154.906 78.0193 154.845C82.2807 154.826 85.3598 150.988 84.915 146.75V146.75C84.4701 142.511 80.664 139.486 76.4023 139.399C66.3761 139.193 56.5095 136.541 47.6787 131.623C36.5899 125.447 27.6741 115.998 22.1471 104.564C16.6201 93.1302 14.7508 80.268 16.7944 67.7316C18.8379 55.1952 24.6947 43.5949 33.566 34.5126C42.4373 25.4303 53.8914 19.3082 66.3661 16.9811C78.8409 14.654 91.7291 16.2352 103.273 21.509C114.817 26.7829 124.455 35.4927 130.873 46.4507C135.987 55.1827 138.857 65.0036 139.286 75.0388C139.467 79.2923 142.573 83.0244 146.816 83.3741V83.3741Z" fill="url(#paint0_linear_1281_230)"/>
<path d="M9.53453 64.5403C5.35241 63.7341 1.26802 66.4729 0.884252 70.7147C-0.566359 86.7482 3.02643 102.908 11.2634 116.885C19.4979 130.857 31.8846 141.819 46.5996 148.303C50.501 150.023 54.8783 147.77 56.1964 143.716V143.716C57.5134 139.664 55.27 135.355 51.4158 133.541C40.2571 128.288 30.8692 119.776 24.5438 109.043C18.2166 98.3062 15.3147 85.9598 16.1211 73.6387C16.3991 69.3909 13.7145 65.3461 9.53453 64.5403V64.5403Z" fill="#F8C33A"/>
<path d="M10.0869 93.4369C5.94148 94.4039 3.32716 98.5651 4.70044 102.594C9.89432 117.833 19.7475 131.132 32.9561 140.544C46.1602 149.952 61.9332 154.918 78.0125 154.845C82.2739 154.826 85.3536 150.989 84.9091 146.751V146.751C84.4646 142.511 80.6587 139.486 76.3969 139.399C64.071 139.145 52.0377 135.195 41.898 127.97C31.7548 120.742 24.085 110.649 19.8112 99.0691C18.3365 95.0732 14.235 92.4694 10.0869 93.4369V93.4369Z" fill="url(#paint1_linear_1281_230)"/>
<path d="M91.9048 151.64C91.3201 151.64 90.8182 151.492 90.3991 151.196C89.9825 150.898 89.6617 150.468 89.4368 149.907C89.2143 149.344 89.103 148.666 89.103 147.872C89.1054 147.079 89.2178 146.405 89.4403 145.848C89.6652 145.29 89.986 144.863 90.4027 144.57C90.8217 144.276 91.3224 144.13 91.9048 144.13C92.4872 144.13 92.9879 144.276 93.407 144.57C93.826 144.863 94.1468 145.29 94.3693 145.848C94.5942 146.407 94.7067 147.082 94.7067 147.872C94.7067 148.668 94.5942 149.347 94.3693 149.911C94.1468 150.472 93.826 150.9 93.407 151.196C92.9903 151.492 92.4896 151.64 91.9048 151.64ZM91.9048 150.529C92.3594 150.529 92.718 150.305 92.9808 149.858C93.246 149.408 93.3786 148.746 93.3786 147.872C93.3786 147.295 93.3182 146.809 93.1974 146.416C93.0767 146.023 92.9063 145.728 92.6861 145.529C92.4659 145.327 92.2055 145.227 91.9048 145.227C91.4527 145.227 91.0952 145.452 90.8324 145.902C90.5696 146.349 90.437 147.006 90.4347 147.872C90.4323 148.452 90.4903 148.94 90.6087 149.336C90.7294 149.731 90.8999 150.029 91.12 150.23C91.3402 150.429 91.6018 150.529 91.9048 150.529ZM99.775 150.138V149.755C99.775 149.473 99.8342 149.214 99.9526 148.977C100.073 148.74 100.249 148.55 100.478 148.405C100.708 148.261 100.986 148.188 101.313 148.188C101.649 148.188 101.931 148.261 102.158 148.405C102.385 148.547 102.557 148.737 102.673 148.973C102.791 149.21 102.85 149.47 102.85 149.755V150.138C102.85 150.42 102.791 150.679 102.673 150.916C102.554 151.153 102.38 151.343 102.151 151.488C101.923 151.632 101.644 151.704 101.313 151.704C100.981 151.704 100.701 151.632 100.471 151.488C100.241 151.343 100.067 151.153 99.949 150.916C99.833 150.679 99.775 150.42 99.775 150.138ZM100.702 149.755V150.138C100.702 150.325 100.747 150.497 100.837 150.653C100.927 150.809 101.085 150.887 101.313 150.887C101.542 150.887 101.7 150.81 101.785 150.657C101.873 150.5 101.916 150.327 101.916 150.138V149.755C101.916 149.565 101.875 149.392 101.792 149.236C101.709 149.077 101.549 148.998 101.313 148.998C101.09 148.998 100.933 149.077 100.84 149.236C100.748 149.392 100.702 149.565 100.702 149.755ZM96.0783 145.976V145.593C96.0783 145.309 96.1387 145.048 96.2594 144.811C96.3801 144.575 96.5553 144.385 96.785 144.243C97.0146 144.099 97.2928 144.027 97.6195 144.027C97.9533 144.027 98.2338 144.099 98.4611 144.243C98.6908 144.385 98.8636 144.575 98.9796 144.811C99.0956 145.048 99.1536 145.309 99.1536 145.593V145.976C99.1536 146.26 99.0944 146.521 98.976 146.757C98.86 146.992 98.6872 147.18 98.4576 147.322C98.2279 147.464 97.9486 147.535 97.6195 147.535C97.2857 147.535 97.004 147.464 96.7743 147.322C96.5471 147.18 96.3742 146.991 96.2559 146.754C96.1375 146.517 96.0783 146.258 96.0783 145.976ZM97.0123 145.593V145.976C97.0123 146.166 97.056 146.338 97.1436 146.495C97.2336 146.648 97.3922 146.725 97.6195 146.725C97.8468 146.725 98.003 146.648 98.0882 146.495C98.1758 146.338 98.2196 146.166 98.2196 145.976V145.593C98.2196 145.403 98.1782 145.23 98.0953 145.074C98.0125 144.916 97.8539 144.836 97.6195 144.836C97.3946 144.836 97.2372 144.916 97.1472 145.074C97.0572 145.233 97.0123 145.406 97.0123 145.593ZM96.4831 151.502L101.483 144.229H102.371L97.3709 151.502H96.4831Z" fill="black" fill-opacity="0.7"/>
<path d="M139.175 87.229V94.5017H137.857V88.5109H137.815L136.114 89.5976V88.3902L137.921 87.229H139.175ZM143.71 94.6402C143.125 94.6402 142.623 94.4922 142.204 94.1963C141.787 93.898 141.466 93.4683 141.241 92.9072C141.019 92.3438 140.908 91.6655 140.908 90.8724C140.91 90.0794 141.022 89.4046 141.245 88.8483C141.47 88.2896 141.791 87.8635 142.207 87.5699C142.626 87.2763 143.127 87.1295 143.71 87.1295C144.292 87.1295 144.793 87.2763 145.212 87.5699C145.631 87.8635 145.951 88.2896 146.174 88.8483C146.399 89.407 146.511 90.0817 146.511 90.8724C146.511 91.6679 146.399 92.3474 146.174 92.9108C145.951 93.4719 145.631 93.9004 145.212 94.1963C144.795 94.4922 144.294 94.6402 143.71 94.6402ZM143.71 93.5287C144.164 93.5287 144.523 93.305 144.786 92.8575C145.051 92.4077 145.183 91.746 145.183 90.8724C145.183 90.2948 145.123 89.8095 145.002 89.4165C144.881 89.0235 144.711 88.7276 144.491 88.5287C144.271 88.3275 144.01 88.2269 143.71 88.2269C143.257 88.2269 142.9 88.4518 142.637 88.9016C142.374 89.349 142.242 90.006 142.239 90.8724C142.237 91.4525 142.295 91.9402 142.413 92.3355C142.534 92.7309 142.705 93.0292 142.925 93.2304C143.145 93.4293 143.406 93.5287 143.71 93.5287ZM150.379 94.6402C149.795 94.6402 149.293 94.4922 148.874 94.1963C148.457 93.898 148.136 93.4683 147.911 92.9072C147.689 92.3438 147.578 91.6655 147.578 90.8724C147.58 90.0794 147.692 89.4046 147.915 88.8483C148.14 88.2896 148.461 87.8635 148.877 87.5699C149.296 87.2763 149.797 87.1295 150.379 87.1295C150.962 87.1295 151.463 87.2763 151.882 87.5699C152.301 87.8635 152.621 88.2896 152.844 88.8483C153.069 89.407 153.181 90.0817 153.181 90.8724C153.181 91.6679 153.069 92.3474 152.844 92.9108C152.621 93.4719 152.301 93.9004 151.882 94.1963C151.465 94.4922 150.964 94.6402 150.379 94.6402ZM150.379 93.5287C150.834 93.5287 151.193 93.305 151.455 92.8575C151.721 92.4077 151.853 91.746 151.853 90.8724C151.853 90.2948 151.793 89.8095 151.672 89.4165C151.551 89.0235 151.381 88.7276 151.161 88.5287C150.941 88.3275 150.68 88.2269 150.379 88.2269C149.927 88.2269 149.57 88.4518 149.307 88.9016C149.044 89.349 148.912 90.006 148.909 90.8724C148.907 91.4525 148.965 91.9402 149.083 92.3355C149.204 92.7309 149.374 93.0292 149.595 93.2304C149.815 93.4293 150.076 93.5287 150.379 93.5287ZM158.25 93.1381V92.7545C158.25 92.4728 158.309 92.2136 158.427 91.9769C158.548 91.7401 158.723 91.5495 158.953 91.4051C159.182 91.2607 159.461 91.1885 159.787 91.1885C160.123 91.1885 160.405 91.2607 160.632 91.4051C160.86 91.5472 161.031 91.7366 161.147 91.9733C161.266 92.21 161.325 92.4705 161.325 92.7545V93.1381C161.325 93.4198 161.266 93.679 161.147 93.9158C161.029 94.1525 160.855 94.3431 160.625 94.4875C160.398 94.6319 160.119 94.7041 159.787 94.7041C159.456 94.7041 159.175 94.6319 158.946 94.4875C158.716 94.3431 158.542 94.1525 158.424 93.9158C158.308 93.679 158.25 93.4198 158.25 93.1381ZM159.176 92.7545V93.1381C159.176 93.3251 159.221 93.4967 159.311 93.653C159.401 93.8092 159.56 93.8874 159.787 93.8874C160.017 93.8874 160.174 93.8104 160.26 93.6565C160.347 93.5003 160.391 93.3275 160.391 93.1381V92.7545C160.391 92.5652 160.35 92.3923 160.267 92.2361C160.184 92.0775 160.024 91.9982 159.787 91.9982C159.565 91.9982 159.407 92.0775 159.315 92.2361C159.223 92.3923 159.176 92.5652 159.176 92.7545ZM154.553 88.9761V88.5926C154.553 88.3085 154.613 88.0481 154.734 87.8114C154.855 87.5746 155.03 87.3852 155.26 87.2432C155.489 87.0988 155.767 87.0266 156.094 87.0266C156.428 87.0266 156.708 87.0988 156.936 87.2432C157.165 87.3852 157.338 87.5746 157.454 87.8114C157.57 88.0481 157.628 88.3085 157.628 88.5926V88.9761C157.628 89.2602 157.569 89.5206 157.451 89.7574C157.335 89.9918 157.162 90.18 156.932 90.322C156.703 90.4641 156.423 90.5351 156.094 90.5351C155.76 90.5351 155.479 90.4641 155.249 90.322C155.022 90.18 154.849 89.9906 154.73 89.7538C154.612 89.5171 154.553 89.2579 154.553 88.9761ZM155.487 88.5926V88.9761C155.487 89.1655 155.531 89.3384 155.618 89.4946C155.708 89.6485 155.867 89.7254 156.094 89.7254C156.321 89.7254 156.478 89.6485 156.563 89.4946C156.65 89.3384 156.694 89.1655 156.694 88.9761V88.5926C156.694 88.4032 156.653 88.2304 156.57 88.0742C156.487 87.9155 156.328 87.8362 156.094 87.8362C155.869 87.8362 155.712 87.9155 155.622 88.0742C155.532 88.2328 155.487 88.4056 155.487 88.5926ZM154.958 94.5017L159.958 87.229H160.846L155.846 94.5017H154.958Z" fill="black" fill-opacity="0.7"/>
<defs>
<linearGradient id="paint0_linear_1281_230" x1="71.1125" y1="49.506" x2="83.4702" y2="90.0145" gradientUnits="userSpaceOnUse">
<stop stop-color="#F8C33A"/>
<stop offset="1" stop-color="#2CA049"/>
</linearGradient>
<linearGradient id="paint1_linear_1281_230" x1="54.1515" y1="123.205" x2="30.9919" y2="90.043" gradientUnits="userSpaceOnUse">
<stop stop-color="#F6435C"/>
<stop offset="1" stop-color="#F6435C" stop-opacity="0"/>
</linearGradient>
</defs>
</svg>
